{"title":"And So It Goes (2014) TS [RUS]","uid":10705171,"size":723921054,"categoryP":"video","categoryS":"movies","magnet":"?xt=urn:btih:f7b312bd5e063e3f308f59669795aaa7db49990b&amp;dn=And+So+It+Goes+%282014%29+TS+%5BRUS%5D&amp;tr=udp%3A%2F%2Ftracker.openbittorrent.com%3A80&amp;tr=udp%3A%2F%2Fopen.demonii.com%3A1337&amp;tr=udp%3A%2F%2Ftracker.coppersurfer.tk%3A6969&amp;tr=udp%3A%2F%2Fexodus.desync.com%3A6969","seeders":0,"leechers":1,"uploader":"yfjfrj","files":-1,"time":1407276563,"description":"A self-absorbed realtor enlists the help of his neighbor when he's suddenly left in charge of the granddaughter he never knew existed until his estranged son drops her off at his home.\n\nDirector: Rob Reiner\nWriter: Mark Andrus\nStars: Michael Douglas, Diane Keaton, Sterling Jerins\n\nMI:\nGeneral\nComplete name                            : D:moviesAnd.So.It.Goes.2014.D.TS.700MB.avi\nFormat                                   : AVI\nFormat/Info                              : Audio Video Interleave\nFile size                                : 690 MiB\nDuration                                 : 1h 27mn\nOverall bit rate                         : 1 099 Kbps\nWriting application                      : VirtualDubMod 1.5.10.3 | www.virtualdub-fr.org || (build 2550/release)\nWriting library                          : VirtualDub build 35491/release\n\nVideo\nID                                       : 0\nFormat                                   : MPEG-4 Visual\nFormat profile                           : Advanced Simple@L5\nFormat settings, BVOP                    : 2\nFormat settings, QPel                    : No\nFormat settings, GMC                     : No warppoints\nFormat settings, Matrix                  : Default (H.263)\nMuxing mode                              : Packed bitstream\nCodec ID                                 : XVID\nCodec ID/Hint                            : XviD\nDuration                                 : 1h 27mn\nBit rate                                 : 959 Kbps\nWidth                                    : 640 pixels\nHeight                                   : 352 pixels\nDisplay aspect ratio                     : 16:9\nFrame rate                               : 29.970 fps\nColor space                              : YUV\nChroma subsampling                       : 4:2:0\nBit depth                                : 8 bits\nScan type                                : Progressive\nCompression mode                         : Lossy\nBits/(Pixel*Frame)                       : 0.142\nStream size                              : 603 MiB (87%)\nWriting library                          : XviD 64\n\nAudio\nID                                       : 1\nFormat                                   : MPEG Audio\nFormat version                           : Version 1\nFormat profile                           : Layer 3\nMode                                     : Joint stereo\nCodec ID                                 : 55\nCodec ID/Hint                            : MP3\nDuration                                 : 1h 27mn\nBit rate mode                            : Constant\nBit rate                                 : 128 Kbps\nChannel(s)                               : 2 channels\nSampling rate                            : 48.0 KHz\nCompression mode                         : Lossy\nStream size                              : 80.4 MiB (12%)\nAlignment                                : Split accross interleaves\nInterleave, duration                     : 33 ms (1.00 video frame)\nInterleave, preload duration             : 500 ms\n\n\n\nScreenshots:  &lt;a href=&quot;\nhttp://i1.imageban.ru/out/2014/08/05/97b442a0028ccc6a82fa5712fa626f0b.png&quot; rel=&quot;nofollow&quot; target=&quot;_NEW&quot;&gt;\nhttp://i1.imageban.ru/out/2014/08/05/97b442a0028ccc6a82fa5712fa626f0b.png&lt;/a&gt; &lt;a href=&quot;\nhttp://i1.imageban.ru/out/2014/08/05/d9decb14d5752c87f7591d181985cfef.png&quot; rel=&quot;nofollow&quot; target=&quot;_NEW&quot;&gt;\nhttp://i1.imageban.ru/out/2014/08/05/d9decb14d5752c87f7591d181985cfef.png&lt;/a&gt; &lt;a href=&quot;\nhttp://i6.imageban.ru/out/2014/08/05/a1dc196fb8a3ff80546c55455b17c9d5.png&quot; rel=&quot;nofollow&quot; target=&quot;_NEW&quot;&gt;\nhttp://i6.imageban.ru/out/2014/08/05/a1dc196fb8a3ff80546c55455b17c9d5.png&lt;/a&gt; &lt;a href=&quot;\nhttp://i1.imageban.ru/out/2014/08/05/104e93bffbceb4bdfbf0d80465f0cb6e.png&quot; rel=&quot;nofollow&quot; target=&quot;_NEW&quot;&gt;\nhttp://i1.imageban.ru/out/2014/08/05/104e93bffbceb4bdfbf0d80465f0cb6e.png&lt;/a&gt; &lt;a href=&quot;\nhttp://i1.imageban.ru/out/2014/08/05/f34e3fe7f2856e0e3c1cb66a4118e909.png&quot; rel=&quot;nofollow&quot; target=&quot;_NEW&quot;&gt;\nhttp://i1.imageban.ru/out/2014/08/05/f34e3fe7f2856e0e3c1cb66a4118e909.png&lt;/a&gt; &lt;a href=&quot;\nhttp://i5.imageban.ru/out/2014/08/05/b0700b1d7186e6118dae1a9aa7481212.png&quot; rel=&quot;nofollow&quot; target=&quot;_NEW&quot;&gt;\nhttp://i5.imageban.ru/out/2014/08/05/b0700b1d7186e6118dae1a9aa7481212.png&lt;/a&gt; &lt;a href=&quot;\nhttp://i6.imageban.ru/out/2014/08/05/5edcf6e53236f0836d25361833bdc0e0.png&quot; rel=&quot;nofollow&quot; target=&quot;_NEW&quot;&gt;\nhttp://i6.imageban.ru/out/2014/08/05/5edcf6e53236f0836d25361833bdc0e0.png&lt;/a&gt; &lt;a href=&quot;\nhttp://i4.imageban.ru/out/2014/08/05/04a58f0787cf2bfeadbb557e9436f667.png&quot; rel=&quot;nofollow&quot; target=&quot;_NEW&quot;&gt;\nhttp://i4.imageban.ru/out/2014/08/05/04a58f0787cf2bfeadbb557e9436f667.png&lt;/a&gt; &lt;a href=&quot;\nhttp://i4.imageban.ru/out/2014/08/05/b82e83e24cf50a6be11a65bbf2d2eac8.png&quot; rel=&quot;nofollow&quot; target=&quot;_NEW&quot;&gt;\nhttp://i4.imageban.ru/out/2014/08/05/b82e83e24cf50a6be11a65bbf2d2eac8.png&lt;/a&gt; &lt;a href=&quot;\nhttp://i4.imageban.ru/out/2014/08/05/aa7edf366c9aff1d83b5b49ed9e2cbf0.png&quot; rel=&quot;nofollow&quot; target=&quot;_NEW&quot;&gt;\nhttp://i4.imageban.ru/out/2014/08/05/aa7edf366c9aff1d83b5b49ed9e2cbf0.png&lt;/a&gt; &lt;a href=&quot;\nhttp://i6.imageban.ru/out/2014/08/05/9d222ed34a992975ceded1141b6a9c38.png&quot; rel=&quot;nofollow&quot; target=&quot;_NEW&quot;&gt;\nhttp://i6.imageban.ru/out/2014/08/05/9d222ed34a992975ceded1141b6a9c38.png&lt;/a&gt; &lt;a href=&quot;\nhttp://i1.imageban.ru/out/2014/08/05/6bccdb5d22346c3e0844484cc38dce68.png&quot; rel=&quot;nofollow&quot; target=&quot;_NEW&quot;&gt;\nhttp://i1.imageban.ru/out/2014/08/05/6bccdb5d22346c3e0844484cc38dce68.png&lt;/a&gt; &lt;a href=&quot;\nhttp://i6.imageban.ru/out/2014/08/05/604b4a7b51d06bf6f5dfdbe67e2dc79d.png&quot; rel=&quot;nofollow&quot; target=&quot;_NEW&quot;&gt;\nhttp://i6.imageban.ru/out/2014/08/05/604b4a7b51d06bf6f5dfdbe67e2dc79d.png&lt;/a&gt;\n\nSample:  &lt;a href=&quot;\nhttp://sendfile.su/1008843&quot; rel=&quot;nofollow&quot; target=&quot;_NEW&quot;&gt;\nhttp://sendfile.su/1008843&lt;/a&gt;","torrent":{"xt":"urn:btih:f7b312bd5e063e3f308f59669795aaa7db49990b","amp;dn":"And+So+It+Goes+%282014%29+TS+%5BRUS%5D","amp;tr":["udp%3A%2F%2Ftracker.openbittorrent.com%3A80","udp%3A%2F%2Fopen.demonii.com%3A1337","udp%3A%2F%2Ftracker.coppersurfer.tk%3A6969","udp%3A%2F%2Fexodus.desync.com%3A6969"],"infoHash":"f7b312bd5e063e3f308f59669795aaa7db49990b","infoHashBuffer":{"type":"Buffer","data":[247,179,18,189,94,6,62,63,48,143,89,102,151,149,170,167,219,73,153,11]},"announce":[],"urlList":[]}}